<svg height="496pt" viewBox="0 -3 496.002 496" width="496pt" xmlns="http://www.w3.org/2000/svg"><path d="m136.003906 352c0 8.835938-7.164062 16-16 16-8.839844 0-16-7.164062-16-16s7.160156-16 16-16c8.835938 0 16 7.164062 16 16zm0 0" fill="#bc8f6f"/><path d="m8 304.003906 40-40 24 24.003906-40 39.996094zm0 0" fill="#bc8f6f"/><path d="m32 248 79.996094-80 56 55.996094-80 80zm0 0" fill="#cb9e78"/><path d="m96.003906 152 24-24 87.996094 87.996094-24 24zm0 0" fill="#bc8f6f"/><path d="m488.003906 296c0 13.253906-10.746094 24-24 24-13.257812 0-24-10.746094-24-24s10.742188-24 24-24c13.253906 0 24 10.746094 24 24zm0 0" fill="#85b6cf"/><path d="m472.003906 296c0-12.441406-7.164062-22.527344-16-22.527344-8.839844 0-16 10.085938-16 22.527344s7.160156 22.527344 16 22.527344c8.835938 0 16-10.085938 16-22.527344zm0 0" fill="#94cce7"/><path d="m320.003906 448c0-22.085938-17.914062-40-40-40 22.085938 0 40-17.910156 40-40 0 22.089844 17.910156 40 40 40-22.089844 0-40 17.914062-40 40zm0 0" fill="#df9363"/><path d="m208.003906 352c0-22.085938-17.914062-40-40-40 22.085938 0 40-17.910156 40-40 0 22.089844 17.910156 40 40 40-22.089844 0-40 17.914062-40 40zm0 0" fill="#cb9e78"/><path d="m240.003906 144c0-22.085938-17.914062-40-40-40 22.085938 0 40-17.910156 40-40 0 22.089844 17.910156 40 40 40-22.089844 0-40 17.914062-40 40zm0 0" fill="#5789d6"/><path d="m200.003906 32c0 13.253906-10.746094 24-24 24-13.257812 0-24-10.746094-24-24s10.742188-24 24-24c13.253906 0 24 10.746094 24 24zm0 0" fill="#599072"/><path d="m184.003906 32c0-12.441406-7.164062-22.527344-16-22.527344-8.839844 0-16 10.085938-16 22.527344s7.160156 22.527344 16 22.527344c8.835938 0 16-10.085938 16-22.527344zm0 0" fill="#70b48f"/><path d="m112.003906 48c0 22.09375-17.910156 40-40 40-22.09375 0-40-17.90625-40-40 0-22.089844 17.90625-40 40-40 22.089844 0 40 17.910156 40 40zm0 0" fill="#ca5057"/><path d="m88.003906 48c0-20.96875-12.539062-37.96875-28-37.96875-15.464844 0-28 17-28 37.96875s12.535156 37.96875 28 37.96875c15.460938 0 28-17 28-37.96875zm0 0" fill="#dc6068"/><path d="m488.003906 408c0 26.511719-21.492187 48-48 48-26.511718 0-48-21.488281-48-48 0-26.507812 21.488282-48 48-48 26.507813 0 48 21.492188 48 48zm0 0" fill="#eebc5a"/><path d="m464.003906 408c0-25.636719-16.121094-46.421875-36-46.421875-19.882812 0-36 20.785156-36 46.421875 0 25.640625 16.117188 46.425781 36 46.425781 19.878906 0 36-20.785156 36-46.425781zm0 0" fill="#f8cf6a"/><path d="m376.003906 256c0 26.511719-21.492187 48-48 48-26.511718 0-48-21.488281-48-48 0-26.507812 21.488282-48 48-48 26.507813 0 48 21.492188 48 48zm0 0" fill="#7a6ac3"/><path d="m360.003906 256c0-26.109375-17.910156-47.277344-40-47.277344-22.09375 0-40 21.167969-40 47.277344 0 26.113281 17.90625 47.28125 40 47.28125 22.089844 0 40-21.167969 40-47.28125zm0 0" fill="#a795e6"/><path d="m488.003906 96c0 48.601562-39.402344 88-88 88-48.601562 0-88-39.398438-88-88s39.398438-88 88-88c48.597656 0 88 39.398438 88 88zm0 0" fill="#5789d6"/><path d="m464.003906 96c0-48.097656-34.027344-87.085938-76-87.085938-41.976562 0-76 38.988282-76 87.085938s34.023438 87.089844 76 87.089844c41.972656 0 76-38.992188 76-87.089844zm0 0" fill="#699ce6"/><path d="m416.96875 88.96875-1.941406-1.945312c-4.496094-4.496094-10.601563-7.023438-16.96875-7.023438h-84.535156c-.953126 5.191406-1.519532 10.527344-1.519532 16s.566406 10.808594 1.519532 16h68.535156c6.367187 0 12.472656 2.527344 16.96875 7.03125l1.941406 1.945312c4.503906 4.496094 10.609375 7.023438 16.976562 7.023438h63.96875c3.878907-9.925781 6.089844-20.695312 6.089844-32h-54.058594c-6.367187 0-12.472656-2.527344-16.976562-7.03125zm0 0" fill="#599072"/><path d="m433.945312 96h-24c-6.367187 0-12.472656-2.527344-16.96875-7.03125l-1.941406-1.945312c-4.503906-4.496094-10.609375-7.023438-16.976562-7.023438h-60.535156c-.953126 5.191406-1.519532 10.527344-1.519532 16s.566406 10.808594 1.519532 16h68.535156c6.367187 0 12.472656 2.527344 16.96875 7.03125l1.941406 1.945312c4.503906 4.496094 10.609375 7.023438 16.976562 7.023438h39.96875c3.878907-9.925781 6.089844-20.695312 6.089844-32zm0 0" fill="#70b48f"/><path d="m400.003906 192c-52.9375 0-96-43.0625-96-96 0-52.933594 43.0625-96 96-96 52.933594 0 96 43.066406 96 96 0 52.9375-43.066406 96-96 96zm0-176c-44.113281 0-80 35.890625-80 80 0 44.113281 35.886719 80 80 80 44.109375 0 80-35.886719 80-80 0-44.109375-35.890625-80-80-80zm0 0"/><path d="m32.003906 336c-2.050781 0-4.097656-.78125-5.65625-2.34375l-24-24c-3.128906-3.128906-3.128906-8.183594 0-11.3125l40-40c3.125-3.125 8.183594-3.125 11.308594 0l24 24c3.128906 3.128906 3.128906 8.183594 0 11.3125l-40 40c-1.558594 1.5625-3.605469 2.34375-5.652344 2.34375zm-12.691406-32 12.691406 12.6875 28.6875-28.6875-12.6875-12.6875zm0 0"/><path d="m88.003906 312c-2.050781 0-4.097656-.78125-5.65625-2.34375l-56-56c-3.128906-3.128906-3.128906-8.183594 0-11.3125l80-80c3.125-3.125 8.183594-3.125 11.308594 0l56 56c3.128906 3.128906 3.128906 8.183594 0 11.3125l-80 80c-1.558594 1.5625-3.605469 2.34375-5.652344 2.34375zm-44.691406-64 44.691406 44.6875 68.6875-68.6875-44.6875-44.6875zm0 0"/><path d="m184.003906 248c-2.050781 0-4.097656-.78125-5.65625-2.34375l-88-88c-3.128906-3.128906-3.128906-8.183594 0-11.3125l24-24c3.125-3.125 8.183594-3.125 11.308594 0l88 88c3.128906 3.128906 3.128906 8.183594 0 11.3125l-24 24c-1.558594 1.5625-3.605469 2.34375-5.652344 2.34375zm-76.691406-96 76.691406 76.6875 12.6875-12.6875-76.6875-76.6875zm0 0"/><path d="m120.003906 376c-13.234375 0-24-10.765625-24-24 0-13.230469 10.765625-24 24-24 13.230469 0 24 10.769531 24 24 0 13.234375-10.769531 24-24 24zm0-32c-4.417968 0-8 3.59375-8 8 0 4.410156 3.582032 8 8 8 4.414063 0 8-3.589844 8-8 0-4.40625-3.585937-8-8-8zm0 0"/><path d="m112.003906 272h16v64h-16zm0 0"/><path d="m56.550781 485.039062 48.011719-119.984374 14.863281 5.945312-48.011719 119.988281zm0 0"/><path d="m120.582031 370.976562 14.863281-5.945312 48 120-14.863281 5.945312zm0 0"/><path d="m43.339844 318.503906 9.300781-13.019531 55.992187 39.996094-9.296874 13.019531zm0 0"/><path d="m488.003906 104h-54.066406c-8.429688 0-16.671875-3.414062-22.625-9.375l-1.933594-1.9375c-2.976562-2.984375-7.105468-4.6875-11.3125-4.6875h-86.0625v-16h86.0625c8.429688 0 16.671875 3.417969 22.625 9.378906l1.933594 1.933594c2.976562 2.984375 7.105469 4.6875 11.3125 4.6875h54.066406zm0 0"/><path d="m480.003906 136h-62.066406c-8.429688 0-16.671875-3.414062-22.625-9.375l-1.933594-1.9375c-2.976562-2.984375-7.105468-4.6875-11.3125-4.6875h-70.0625v-16h70.0625c8.429688 0 16.671875 3.417969 22.625 9.378906l1.933594 1.933594c2.976562 2.984375 7.105469 4.6875 11.3125 4.6875h62.066406zm0 0"/><path d="m328.003906 312c-30.875 0-56-25.117188-56-56 0-30.878906 25.125-56 56-56 30.871094 0 56 25.121094 56 56 0 30.882812-25.128906 56-56 56zm0-96c-22.058594 0-40 17.945312-40 40 0 22.058594 17.941406 40 40 40 22.054688 0 40-17.941406 40-40 0-22.054688-17.945312-40-40-40zm0 0"/><path d="m328.003906 280c-35.65625 0-96-6.734375-96-32 0-19.328125 35.871094-26.855469 57.253906-29.621094l2.0625 15.863282c-29.832031 3.863281-42.269531 11.292968-43.367187 14.09375 2.234375 5.023437 31.703125 15.664062 80.050781 15.664062 48.34375 0 77.8125-10.640625 80.046875-16.335938-1.097656-2.117187-13.535156-9.550781-43.367187-13.414062l2.0625-15.863281c21.382812 2.757812 57.257812 10.285156 57.257812 29.613281 0 25.265625-60.347656 32-96 32zm0 0"/><path d="m240.003906 152c-4.425781 0-8-3.582031-8-8 0-17.648438-14.355468-32-32-32-4.425781 0-8-3.582031-8-8 0-4.414062 3.574219-8 8-8 17.644532 0 32-14.351562 32-32 0-4.414062 3.574219-8 8-8 4.421875 0 8 3.585938 8 8 0 17.648438 14.351563 32 32 32 4.421875 0 8 3.585938 8 8 0 4.417969-3.578125 8-8 8-17.648437 0-32 14.351562-32 32 0 4.417969-3.578125 8-8 8zm-13.496094-48c5.34375 3.554688 9.933594 8.152344 13.496094 13.496094 3.550782-5.34375 8.148438-9.933594 13.492188-13.496094-5.34375-3.550781-9.933594-8.152344-13.492188-13.496094-3.554687 5.34375-8.152344 9.945313-13.496094 13.496094zm0 0"/><path d="m208.003906 360c-4.425781 0-8-3.582031-8-8 0-17.648438-14.355468-32-32-32-4.425781 0-8-3.582031-8-8 0-4.414062 3.574219-8 8-8 17.644532 0 32-14.351562 32-32 0-4.414062 3.574219-8 8-8 4.421875 0 8 3.585938 8 8 0 17.648438 14.351563 32 32 32 4.421875 0 8 3.585938 8 8 0 4.417969-3.578125 8-8 8-17.648437 0-32 14.351562-32 32 0 4.417969-3.578125 8-8 8zm-13.496094-48c5.34375 3.554688 9.933594 8.152344 13.496094 13.496094 3.550782-5.34375 8.148438-9.933594 13.492188-13.496094-5.34375-3.550781-9.933594-8.152344-13.492188-13.496094-3.554687 5.34375-8.152344 9.945313-13.496094 13.496094zm0 0"/><path d="m320.003906 456c-4.425781 0-8-3.582031-8-8 0-17.648438-14.355468-32-32-32-4.425781 0-8-3.582031-8-8 0-4.414062 3.574219-8 8-8 17.644532 0 32-14.351562 32-32 0-4.414062 3.574219-8 8-8 4.421875 0 8 3.585938 8 8 0 17.648438 14.351563 32 32 32 4.421875 0 8 3.585938 8 8 0 4.417969-3.578125 8-8 8-17.648437 0-32 14.351562-32 32 0 4.417969-3.578125 8-8 8zm-13.496094-48c5.34375 3.554688 9.933594 8.152344 13.496094 13.496094 3.550782-5.34375 8.148438-9.933594 13.492188-13.496094-5.34375-3.550781-9.933594-8.152344-13.492188-13.496094-3.554687 5.34375-8.152344 9.945313-13.496094 13.496094zm0 0"/><path d="m176.003906 64c-17.648437 0-32-14.351562-32-32s14.351563-32 32-32c17.644532 0 32 14.351562 32 32s-14.355468 32-32 32zm0-48c-8.824218 0-16 7.175781-16 16s7.175782 16 16 16c8.820313 0 16-7.175781 16-16s-7.179687-16-16-16zm0 0"/><path d="m72.003906 96c-26.472656 0-48-21.527344-48-48s21.527344-48 48-48c26.46875 0 48 21.527344 48 48s-21.53125 48-48 48zm0-80c-17.648437 0-32 14.351562-32 32s14.351563 32 32 32c17.644532 0 32-14.351562 32-32s-14.355468-32-32-32zm0 0"/><path d="m464.003906 328c-17.648437 0-32-14.351562-32-32s14.351563-32 32-32c17.644532 0 32 14.351562 32 32s-14.355468 32-32 32zm0-48c-8.824218 0-16 7.175781-16 16s7.175782 16 16 16c8.820313 0 16-7.175781 16-16s-7.179687-16-16-16zm0 0"/><path d="m440.003906 464c-30.875 0-56-25.117188-56-56 0-30.878906 25.125-56 56-56 30.871094 0 56 25.121094 56 56 0 30.882812-25.128906 56-56 56zm0-96c-22.058594 0-40 17.945312-40 40 0 22.058594 17.941406 40 40 40 22.054688 0 40-17.941406 40-40 0-22.054688-17.945312-40-40-40zm0 0"/></svg>