<svg height="496pt" viewBox="-80 0 496 496" width="496pt" xmlns="http://www.w3.org/2000/svg"><path d="m58.832031 488c-6.640625-5.863281-10.832031-14.441406-10.832031-24 0-17.671875 14.328125-32 32-32s32 14.328125 32 32c0 9.558594-4.191406 18.136719-10.832031 24h66.832031v-58.832031c5.863281 6.640625 14.441406 10.832031 24 10.832031 17.671875 0 32-14.328125 32-32s-14.328125-32-32-32c-9.558594 0-18.136719 4.191406-24 10.832031v-58.832031h-160v160zm0 0" fill="#599072"/><path d="m168 488v-58.832031c5.863281 6.640625 14.441406 10.832031 24 10.832031 17.671875 0 32-14.328125 32-32s-14.328125-32-32-32c-9.558594 0-18.136719 4.191406-24 10.832031v-58.832031h160v160zm0 0" fill="#eebc5a"/><path d="m88 200v96h64v-176h80v-32h-144c-17.671875 0-32 14.328125-32 32v80h32v-72" fill="#5789d6"/><path d="m88 176h64v120h-64zm0 0" fill="#999"/><path d="m120 88c17.671875 0 32-14.328125 32-32v-16c0-17.671875-14.328125-32-32-32s-32 14.328125-32 32v16c0 17.671875 14.328125 32 32 32zm0 0" fill="#dcb29c"/><path d="m112 9.128906c-13.777344 3.566406-24 15.976563-24 30.871094v16c0 14.894531 10.222656 27.296875 24 30.871094 13.777344-3.566406 24-15.976563 24-30.871094v-16c0-14.894531-10.222656-27.304688-24-30.871094zm0 0" fill="#f3c6b0"/><path d="m320 72h-88v-64h88l-24 32zm0 0" fill="#dc6068"/><path d="m168 496h-66.832031c-3.328125 0-6.304688-2.054688-7.488281-5.167969-1.175782-3.113281-.304688-6.625 2.191406-8.832031 5.160156-4.558594 8.128906-11.121094 8.128906-18 0-13.230469-10.769531-24-24-24s-24 10.769531-24 24c0 6.878906 2.96875 13.441406 8.128906 18 2.496094 2.199219 3.367188 5.71875 2.191406 8.832031-1.175781 3.113281-4.152343 5.167969-7.488281 5.167969h-50.832031c-4.414062 0-8-3.585938-8-8v-160c0-4.414062 3.585938-8 8-8h160c4.414062 0 8 3.585938 8 8v43.34375c4.992188-2.175781 10.433594-3.34375 16-3.34375 22.054688 0 40 17.945312 40 40s-17.945312 40-40 40c-5.566406 0-11.007812-1.167969-16-3.34375v43.34375c0 4.414062-3.585938 8-8 8zm-51.34375-16h43.34375v-50.832031c0-3.328125 2.054688-6.304688 5.167969-7.488281 3.097656-1.175782 6.625-.304688 8.832031 2.191406 4.558594 5.160156 11.121094 8.128906 18 8.128906 13.230469 0 24-10.769531 24-24s-10.769531-24-24-24c-6.878906 0-13.441406 2.96875-18 8.128906-2.207031 2.488282-5.726562 3.359375-8.832031 2.191406-3.113281-1.175781-5.167969-4.152343-5.167969-7.488281v-50.832031h-144v144h27.34375c-2.175781-4.992188-3.34375-10.433594-3.34375-16 0-22.054688 17.945312-40 40-40s40 17.945312 40 40c0 5.566406-1.167969 11.007812-3.34375 16zm0 0"/><path d="m328 496h-160v-16h152v-144h-152v-16h160c4.414062 0 8 3.585938 8 8v160c0 4.414062-3.585938 8-8 8zm0 0"/><path d="m240 328h-16v-320c0-4.414062 3.585938-8 8-8h88c3.03125 0 5.800781 1.710938 7.160156 4.425781 1.359375 2.710938 1.054688 5.949219-.761718 8.375l-20.398438 27.199219 20.398438 27.199219c1.824218 2.425781 2.113281 5.664062.761718 8.375-1.351562 2.714843-4.128906 4.425781-7.160156 4.425781h-80zm0-264h64l-14.398438-19.199219c-2.136718-2.839843-2.136718-6.761719 0-9.601562l14.398438-19.199219h-64zm0 0"/><path d="m120 96c-22.054688 0-40-17.945312-40-40v-16c0-22.054688 17.945312-40 40-40s40 17.945312 40 40v16c0 22.054688-17.945312 40-40 40zm0-80c-13.230469 0-24 10.769531-24 24v16c0 13.230469 10.769531 24 24 24s24-10.769531 24-24v-16c0-13.230469-10.769531-24-24-24zm0 0"/><path d="m152 304h-64c-4.414062 0-8-3.585938-8-8v-88h-24c-4.414062 0-8-3.585938-8-8v-80c0-22.054688 17.945312-40 40-40h144c4.414062 0 8 3.585938 8 8v32c0 4.414062-3.585938 8-8 8h-72v168c0 4.414062-3.585938 8-8 8zm-56-16h48v-168c0-4.414062 3.585938-8 8-8h72v-16h-136c-13.230469 0-24 10.769531-24 24v72h16v-64h16zm0 0"/><path d="m112 192h16v104h-16zm0 0"/></svg>