<svg height="496pt" viewBox="0 0 496 496.01859" width="496pt" xmlns="http://www.w3.org/2000/svg"><path d="m80.007812 80.019531c0 8.835938-7.160156 16-16 16-8.835937 0-16-7.164062-16-16 0-8.835937 7.164063-16 16-16 8.839844 0 16 7.164063 16 16zm0 0" fill="#699ce6"/><path d="m464.007812 152.019531c0 8.835938-7.160156 16-16 16-8.835937 0-16-7.164062-16-16 0-8.835937 7.164063-16 16-16 8.839844 0 16 7.164063 16 16zm0 0" fill="#dc6068"/><path d="m208.007812 392.019531v56c0 22.085938 17.914063 40 40 40 22.089844 0 40-17.914062 40-40v-56" fill="#999"/><path d="m236.007812 485.988281c16.183594-5.121093 28-20.082031 28-37.96875v-56h-56v56c0 17.878907 11.816407 32.839844 28 37.96875zm0 0" fill="#bab8b9"/><path d="m392.007812 152.019531c0-84.929687-73.527343-152.6875-160.398437-143.097656-66.902344 7.394531-120.609375 62.074219-126.9375 129.089844-4.597656 48.742187 15.113281 93.085937 48.433594 122.304687 24.496093 21.484375 38.902343 52.207032 38.902343 84.789063v46.914062h112v-46.914062c0-32.320313 13.921876-63.101563 38.328126-84.277344 30.433593-26.410156 49.671874-65.363281 49.671874-108.808594zm0 0" fill="#eebc5a"/><path d="m310.335938 260.820312c30.433593-26.402343 49.671874-65.355468 49.671874-108.800781 0-74.152343-56.0625-135.191406-128.101562-143.113281-.097656.007812-.191406.007812-.289062.015625-66.902344 7.394531-120.609376 62.074219-126.9375 129.082031-4.597657 48.742188 15.113281 93.085938 48.433593 122.300782 24.488281 21.496093 38.894531 52.21875 38.894531 84.800781v46.914062h80v-46.914062c0-32.320313 13.921876-63.101563 38.328126-84.285157zm0 0" fill="#f8cf6a"/><path d="m304.007812 184.019531c0 30.925781-25.070312 56-56 56-30.925781 0-56-25.074219-56-56 0-30.929687 25.074219-56 56-56 30.929688 0 56 25.070313 56 56zm0 0" fill="#d9d7d8"/><path d="m280.007812 184.019531c0-30.199219-19.699218-54.679687-44-54.679687-24.300781 0-44 24.480468-44 54.679687s19.699219 54.679688 44 54.679688c24.300782 0 44-24.480469 44-54.679688zm0 0" fill="#efedee"/><path d="m304.007812 400.019531h-112c-4.414062 0-8-3.585937-8-8v-46.914062c0-29.894531-13.183593-58.605469-36.183593-78.773438-37.160157-32.59375-55.789063-79.640625-51.117188-129.074219 6.71875-71.128906 63.078125-128.445312 134.023438-136.289062 43.902343-4.847656 86.03125 8.578125 118.65625 37.792969 32.167969 28.816406 50.621093 70.097656 50.621093 113.257812 0 44.070313-19.109374 85.933594-52.429687 114.839844-22.601563 19.625-35.570313 48.144531-35.570313 78.246094v46.914062c0 4.414063-3.582031 8-8 8zm-104-16h96v-38.914062c0-34.742188 14.976563-67.664063 41.089844-90.328125 29.808594-25.871094 46.910156-63.328125 46.910156-102.757813 0-38.617187-16.511718-75.554687-45.300781-101.335937-29.1875-26.144532-66.914062-38.144532-106.21875-33.800782-63.4375 7.007813-113.839843 58.265626-119.847656 121.886719-4.183594 44.265625 12.488281 86.378907 45.738281 115.535157 26.453125 23.203124 41.628906 56.296874 41.628906 90.800781zm0 0"/><path d="m248.007812 496.019531c-26.46875 0-48-21.527343-48-48v-56h16v56c0 17.648438 14.351563 32 32 32 17.648438 0 32-14.351562 32-32v-64h16v64c0 26.472657-21.527343 48-48 48zm0 0"/><path d="m184.007812 416.019531h128v16h-128zm0 0"/><path d="m168.007812 352.019531h160v16h-160zm0 0"/><path d="m304.511719 190.25-1.015625-15.96875c50.234375-3.199219 95.824218-10.847656 128.378906-21.535156l4.992188 15.199218c-33.800782 11.097657-80.800782 19.015626-132.355469 22.304688zm0 0"/><path d="m467.34375 155.234375-7.628906-14.0625c13.085937-7.097656 20.292968-14.609375 20.292968-21.152344 0-15.074219-37.375-36.664062-119.4375-48.457031l2.269532-15.832031c40.042968 5.753906 133.167968 23.527343 133.167968 64.289062 0 13.046875-9.648437 24.902344-28.664062 35.214844zm0 0"/><path d="m81.089844 82.304688-4.097656-15.46875c16.722656-4.425782 35.671874-8.167969 56.320312-11.136719l2.273438 15.832031c-20.03125 2.886719-38.367188 6.503906-54.496094 10.773438zm0 0"/><path d="m191.503906 190.25c-88.335937-5.625-191.4960935-27.398438-191.4960935-70.230469 0-16.546875 15.3632815-31.039062 45.6640625-43.066406l5.90625 14.867187c-22.601563 8.972657-35.570313 19.253907-35.570313 28.199219 0 21.144531 66.027344 47.222657 176.503907 54.261719zm0 0"/><path d="m248.007812 248.019531c-35.285156 0-64-28.714843-64-64 0-35.289062 28.714844-64 64-64 35.289063 0 64 28.710938 64 64 0 35.285157-28.710937 64-64 64zm0-112c-26.46875 0-48 21.527344-48 48 0 26.472657 21.53125 48 48 48 26.472657 0 48-21.527343 48-48 0-26.472656-21.527343-48-48-48zm0 0"/><path d="m448.007812 176.019531c-13.230468 0-24-10.769531-24-24 0-13.234375 10.769532-24 24-24 13.234376 0 24 10.765625 24 24 0 13.230469-10.765624 24-24 24zm0-32c-4.40625 0-8 3.589844-8 8 0 4.40625 3.59375 8 8 8 4.410157 0 8-3.59375 8-8 0-4.410156-3.589843-8-8-8zm0 0"/><path d="m64.007812 104.019531c-13.230468 0-24-10.769531-24-24 0-13.234375 10.769532-24 24-24 13.234376 0 24 10.765625 24 24 0 13.230469-10.765624 24-24 24zm0-32c-4.40625 0-8 3.589844-8 8 0 4.40625 3.59375 8 8 8 4.410157 0 8-3.59375 8-8 0-4.410156-3.589843-8-8-8zm0 0"/><path d="m240.007812 240.019531h16v120h-16zm0 0"/><path d="m240.007812 32.019531h16v48h-16zm0 0"/><path d="m178.351562 61.679688 11.316407-11.316407 32 32.003907-11.3125 11.3125zm0 0"/><path d="m274.351562 82.359375 32-32 11.316407 11.316406-32 32zm0 0"/></svg>